<svg id="PORTLAND" xmlns="http://www.w3.org/2000/svg" viewBox="0 0 1872 1872"><defs><style>.cls-1{font-size:139.72px;fill:#fff;letter-spacing:0.12em;}.cls-1,.cls-2{font-family:Andrea-Normal, Andrea;}.cls-2{font-size:148.04px;letter-spacing:0.12em;}.cls-2,.cls-4{fill:#13a56d;}.cls-3{fill:#bf1e08;}</style></defs><title>layer4</title><text class="cls-1" transform="translate(1028.07 1462.57) rotate(-24.72) scale(0.88 1)">PORTLAND</text><text class="cls-2" transform="translate(1355.1 1410.16) rotate(-24.1) scale(0.69 1)">oregon</text><path class="cls-3" d="M1253.18,1045.73s-34.78-7.5-18.45,39.61c0,0,23.41,28.93,22,37.47a16.7,16.7,0,0,0,13.88,11.78c9.78,1.41,28.39-6.26,31.53,0,0,0,14.91-.35,5.68-22.48l-.36-3.93s-6,13.92-18.09,2.86c0,0,33.35-4.64,7.45-26.76,0,0,2.49,4.28-3.19,10.35l-1.78-14.64s-2.31-14.66-14-11.78q-.61.15-1.26.36c-12.77,4.28-7.81,2.14-10.64,2.14,0,0-6-4.29-7.59,7.85,0,0-4.83-15.48,8.29-17.2s6.74,1.5,12.77,2.2,13.49-2.13,14.2,1.79-2.84-25.15-28-20.07-12.78,7.93-18.8,11.5-7.09,7.85-7.09,7.85S1240.4,1049.3,1253.18,1045.73Z"/><path class="cls-3" d="M1305.72,1077.1s16,11.24,8.87,23.9c0,0-1.07,6.16,3.91,12.72s-6,15.84-6.39,16.55,15.08,12.13,19.15-3-7.27-23.38-8.86-28.37S1319.38,1079.24,1305.72,1077.1Z"/><path class="cls-3" d="M1330.77,1081.06s-19.52-14.46-21.11-7,1.59,3.21,1.59,3.21a10.37,10.37,0,0,1,10.64,6.6c3.38,7.68,8.34,6.78,6.75,12s8.86,18.38,9,18.56S1345.7,1089.54,1330.77,1081.06Z"/><path class="cls-3" d="M1350.82,1146.2s-1.07-19.18-9.58-26.2c0,0,6.38-11.6,3.19-17.67s33.36,4.26,22.71,21.94S1355.08,1164.83,1350.82,1146.2Z"/><path class="cls-3" d="M1207.05,1134.24s.71-37.12-19.87-45S1199.25,1045,1217,1070l5.67-8.63s-2.13,30,14.19,46.46c0,0,17,13.56,19.16,26.41l14.9,7.85s5-7.85,22.71,0c0,0,30.51,20.7,37.61-12.84,0,0,18.45,40-16.32,28.55,0,0-24.84-12.13-27-5.71l14.9,9.64s18.45-1.43,19.87,2.85-46.83,19.63-66.35,8.93S1211,1167.42,1207.05,1134.24Z"/><path class="cls-4" d="M1194.21,1132.81c-.64-18.94-3.9-18.76-4.25-21.16,0,0-11.71-1-15.62,5.1,0,0,5.32-.63,6.39,2.55s-4.3-4-11.2,6.73-12.22,20-14.34,18.56-12.42,7.79-20.23.14.36,14.48,20.23,10.57,14.34,5.71,14.34,5.71,13.69-19.63,14.75-11.06c0,0-4.76,9.19-7.45,9.63,0,0,3.73,2.3,12.89-4.76,1.62-1.25,1.89,2.36,1.89,2.36a6.22,6.22,0,0,1-5.2,3.11c-3.55,0,7.73,4.69,13.12,0s-1.42,3.93,3.9,3.57S1194.86,1151.73,1194.21,1132.81Zm-12.59-.18c-1.52-3.2-4.34-.81-5.41.18s-4.18,19.35-24.4,18.91c0,0,18.61-.7,21.58-19.38,0-.14,0-.29.06-.43s4.44-4.82,9.59-1.25,8.51,1.6,8.51,1.6-.71,3.49,0,4.55S1183.14,1135.82,1181.61,1132.63Z"/><path class="cls-3" d="M645.83,1233.84s52.1,2.41,11.3,63c0,0-44,32.21-45.22,44.86a24.48,24.48,0,0,1-24.08,11.49c-14.39-1.67-37.89-19.52-44.68-11.82,0,0-21-6.09.37-34l2-5.44s3.32,22,24.56,10.83c0,0-45.52-19.07-.52-40.72,0,0-5.14,5.13.64,15.86l8-20.08s8.77-19.91,24.26-11.44c.54.29,1.09.62,1.64,1,16.49,10.85,10.26,6,14.28,7,0,0,10-3.85,7.8,14,0,0,12.65-20.13-5.3-27.48s-10.12-.41-18.92-1.67-18.31-8.08-20.79-2.78,13.45-34.58,47.24-17.93,15.13,16,22.33,23.35,7.11,13.78,7.11,13.78S662.59,1243.69,645.83,1233.84Z"/><path class="cls-3" d="M559.61,1258.61s-26.84,9.94-21.53,30.55c0,0-.8,9.13-10.3,16.56s2.62,24.71,2.85,25.85-25.92,11.54-26-11.48,19.06-30.41,23.19-36.89S539.46,1256.52,559.61,1258.61Z"/><path class="cls-3" d="M522.63,1254.83s33.08-13.18,32.53-2-3.46,4-3.46,4-9.9-4.24-17.56,5.36-14.36,6.48-14,14.42-19.44,22.73-19.77,22.92S498.29,1261.25,522.63,1254.83Z"/><path class="cls-3" d="M469.81,1339.63s8.7-26.78,23.39-33.54c0,0-4.7-18.83,2.1-26.24s-48.87-6.47-40.41,22.57S456.79,1364.42,469.81,1339.63Z"/><path class="cls-3" d="M678,1376.56s12.91-52.87,45-56.28-.51-67.23-35-38.47l-4.8-14.36S675,1310.81,645.69,1328c0,0-29.22,12.83-37.05,30.25l-24.06,5.53s-4.1-13-32.18-8.51c0,0-51,17.9-48.48-32.3,0,0-41.13,49.72,12.42,46.57,0,0,39.75-7.88,40.35,2L532,1379.59s-25.61-8.94-29.23-3.41,59,45.37,90.68,37.52S660,1422.12,678,1376.56Z"/><path class="cls-4" d="M672,1419.88c7.41,2.5,1-12.27,6.87-3.59s23.62,6.25,18.6,4.92a9.11,9.11,0,0,1-6.2-6.36s1.73-5,3.57-2.64c10.34,13.44,16.48,11.58,16.48,11.58-3.65-1.64-7-16.45-7-16.45,4.72-11.74,16.76,21.21,16.76,21.21s-4.22-15.73,22.47-2.71,46.55-15.3,32.62-7.39-25.05-9-28.61-7.78S740,1396.74,734.28,1379s-16-9.65-13.35-13.74,10-1.22,10-1.22c-3.26-10.06-20.22-13.08-20.22-13.08-1.4,3.27-6,1.8-14,28.4S664.64,1417.38,672,1419.88ZM699,1386c1.41-1.25,1.71-6.45,1.71-6.45s4,4,12.66.92,13.12,5.36,13.12,5.36c0,.21-.05.43-.07.64-2.79,27.57,23.32,35.55,23.32,35.55-28.82-7-26.34-34.16-27.49-35.95s-4.24-6.24-7.59-2.28S697.62,1387.28,699,1386Z"/></svg>