<svg id="waves" xmlns="http://www.w3.org/2000/svg" viewBox="0 0 1872 1872"><defs><style>.cls-1{fill:none;stroke:#8df7f4;stroke-miterlimit:10;stroke-width:5px;}</style></defs><title>layer6</title><path class="cls-1" d="M-1,1748.3c93.6,0,93.6,18,187.2,18s93.6-18,187.2-18,93.6,18,187.2,18,93.6-18,187.2-18,93.6,18,187.2,18,93.6-18,187.2-18,93.6,18,187.2,18,93.6-18,187.2-18,93.6,18,187.2,18,93.6-18,187.2-18"/><path class="cls-1" d="M-1,1763.6c93.6,0,93.6,18,187.2,18s93.6-18,187.2-18,93.6,18,187.2,18,93.6-18,187.2-18,93.6,18,187.2,18,93.6-18,187.2-18,93.6,18,187.2,18,93.6-18,187.2-18,93.6,18,187.2,18,93.6-18,187.2-18"/><path class="cls-1" d="M-1,1778.86c93.6,0,93.6,18,187.2,18s93.6-18,187.2-18,93.6,18,187.2,18,93.6-18,187.2-18,93.6,18,187.2,18,93.6-18,187.2-18,93.6,18,187.2,18,93.6-18,187.2-18,93.6,18,187.2,18,93.6-18,187.2-18"/><path class="cls-1" d="M-1,1794.12c93.6,0,93.6,18,187.2,18s93.6-18,187.2-18,93.6,18,187.2,18,93.6-18,187.2-18,93.6,18,187.2,18,93.6-18,187.2-18,93.6,18,187.2,18,93.6-18,187.2-18,93.6,18,187.2,18,93.6-18,187.2-18"/><path class="cls-1" d="M-1,1809.39c93.6,0,93.6,18,187.2,18s93.6-18,187.2-18,93.6,18,187.2,18,93.6-18,187.2-18,93.6,18,187.2,18,93.6-18,187.2-18,93.6,18,187.2,18,93.6-18,187.2-18,93.6,18,187.2,18,93.6-18,187.2-18"/><path class="cls-1" d="M-1,1824.65c93.6,0,93.6,18,187.2,18s93.6-18,187.2-18,93.6,18,187.2,18,93.6-18,187.2-18,93.6,18,187.2,18,93.6-18,187.2-18,93.6,18,187.2,18,93.6-18,187.2-18,93.6,18,187.2,18,93.6-18,187.2-18"/><path class="cls-1" d="M-1,1839.91c93.6,0,93.6,18,187.2,18s93.6-18,187.2-18,93.6,18,187.2,18,93.6-18,187.2-18,93.6,18,187.2,18,93.6-18,187.2-18,93.6,18,187.2,18,93.6-18,187.2-18,93.6,18,187.2,18,93.6-18,187.2-18"/></svg>