<svg id="mountains" xmlns="http://www.w3.org/2000/svg" viewBox="0 0 1872 1872"><defs><style>.cls-1{fill:#fff;}.cls-2{fill:#3a3a3a;}.cls-3{fill:#6d6d6d;}.cls-4{fill:#535454;}.cls-5{fill:#13a56d;}</style></defs><title>layer5</title><path class="cls-1" d="M40.61,1741.08s24.4-18.19,75.63-35,61-19.58,97.58-42,57.33-35,82.95-47.56,89-32.17,124.41-32.17,62.21,22.38,125.64,4.2,101.24-44.76,146.37-60.13,78.06-42,103.68-50.36,29.28-11.18,42.69-23.77,17.08-23.78,40.26-4.2,41.47,32.17,67.08,43.36,30.49,8.39,52.45,26.57,98.79,62.94,129.29,65.74,67.09,4.2,96.35,15.38,36.59,25.18,64.65,35S1426.26,1660,1451.87,1660s231.74,53.14,243.94,60.13c8.22,4.72,20.3,15.77,27.32,22.48H402.3l-361.69-1.49Z"/><polygon class="cls-2" points="12.01 1738.35 15.62 1738.35 31.38 1738.35 34.99 1738.35 34.99 1730.94 31.38 1730.94 31.38 1722.18 28.16 1722.18 28.16 1699.56 18.85 1699.56 18.85 1722.18 15.62 1722.18 15.62 1730.94 12.01 1730.94 12.01 1738.35"/><polygon class="cls-2" points="169.19 1738.35 172.79 1738.35 188.57 1738.35 192.17 1738.35 192.17 1730.94 188.57 1730.94 188.57 1722.18 185.33 1722.18 185.33 1699.56 176.03 1699.56 176.03 1722.18 172.79 1722.18 172.79 1730.94 169.19 1730.94 169.19 1738.35"/><path class="cls-2" d="M170.77,1703.7l-.4-135h.37c.92-1.91,4.86-3.35,9.57-3.35,5.38,0,9.76,1.87,9.76,4.18a2.15,2.15,0,0,1-.47,1.28l20.69,97.59-3,.63-3.37-15.88L189.4,1669.8l.11,33.89h-3.08l-.09-30.39L175.25,1686l-1.46-1.28.05,18.94h-3.06Zm2.68-131.17,0,12.59h12.58l0-12.19a19.41,19.41,0,0,1-5.74.8,18.29,18.29,0,0,1-6.85-1.2Zm.11,36.34,12.55-14.39,0-6.28H173.51l.05,20.67Zm15.61-17.9,1.25-1.43-1.27-6,0,7.41Zm2,2.32-2,2.32.06,22,5.74-6.48-3.78-17.81Zm-5.09,5.83-10.26,11.77h10.3l0-11.77Zm-12.49,36.06L186.19,1621l0-7.07h-12.6l.06,21.21Zm22.14-20.35-6.51,7.34.06,20.53,10-11.32-3.52-16.56Zm-9.58,10.8-9.8,11h9.82l0-11Zm-12.5,34.8,12.55-14.25,0-6.44H173.66l.05,20.69Zm26.38-25.3-10.74,12.21.05,17.81,13.72-15.73-3-14.29Zm-13.81,15.68L176,1662.45h10.28l0-11.63Zm.06,17.85v-3.15H173.73l.05,17.53,12.55-14.38Z"/><path class="cls-2" d="M341.18,1699.06l-.09-9.82v-.56l-.38-.44-21.59-24.43-.31-.35-.46-.12-21.41-5.46-32.79-8.4-.37-.1-.38.1-32.78,8.4-21.41,5.46-.46.12-.31.35-21.59,24.43-.38.44v.56l-.09,9.82H181l-.09-9.82v-.56l-.38-.44-21.59-24.43-.31-.35-.45-.12-21.41-5.46-32.79-8.4-.37-.1-.37.1-32.79,8.4L49,1663.33l-.45.12-.31.35-21.59,24.43-.38.44v.56l-.09,9.82H20.79l-.09-9.82v-.56l-.38-.44-21.59-24.43,0-.05v41.44h345v-6.14ZM1.56,1671.65l7.91,9-7.91,14.15Zm1.11,27.41,9-16,6,6.78.09,9.23Zm26.56,0,.09-9.23,6-6.78,9,16Zm16.15-4.3-7.91-14.15,7.91-9Zm17.61,4.3H48.29v-30.7l.06-.07L63,1699.06Zm1.3-4.4L50.7,1666.06l13.59-3.45Zm2.91,4.4V1666.4l14.59,32.66Zm16-4.36-14.81-33.13,2.77-.71,12-3.09Zm2.91,4.36v-38.2l15.25,38.2Zm16-6.38-14.4-36.07,14.4-3.69Zm2.91-39.75,14.4,3.69L105,1692.67Zm16,46.14H105.77l15.26-38.2Zm2.91-41.29,12,3.09,2.77.71-14.8,33.13Zm16,41.29h-14.6l14.6-32.66Zm2.9-36.45,13.59,3.45-13.59,28.59Zm16,36.45h-14.7l14.64-30.78.06.08Zm2.91-27.41,7.92,9-7.92,14.15Zm1.11,27.41,9-16,6,6.78.09,9.23Zm26.57,0,.09-9.23,6-6.78,9,16Zm16.14-4.3-7.91-14.15,7.91-9Zm17.62,4.3H208.47v-30.7l.07-.07,14.64,30.77Zm1.31-4.4-13.59-28.59,13.59-3.45Zm2.9,4.4V1666.4l14.6,32.66Zm16-4.36-14.81-33.13,2.77-.71,12-3.09Zm2.9,4.36v-38.2l15.26,38.2Zm16-6.38-14.4-36.07,14.4-3.69Zm2.91-39.75,14.39,3.69-14.39,36.06Zm16,46.14H266l15.25-38.2Zm2.9-41.29,12,3.09,2.77.71-14.81,33.13Zm16,41.29h-14.6l14.6-32.66Zm2.9-36.45,13.59,3.45L303,1694.66Zm16,36.45h-14.7L319,1668.28l.07.08Zm2.91-27.41,7.91,9-7.91,14.15Zm1.1,27.41,9-16,6,6.78.09,9.23Z"/><g id="Layer_1" data-name="Layer 1"><polygon class="cls-3" points="276.2 1606.6 323.83 1606.6 323.83 1738.35 276.2 1738.35 276.2 1606.6"/><polygon class="cls-3" points="484.05 1644.75 531.68 1644.75 531.68 1738.35 484.05 1738.35 484.05 1644.75"/><polygon class="cls-3" points="633.74 1655.89 681.38 1655.89 681.38 1738.35 633.74 1738.35 633.74 1655.89"/><polygon class="cls-3" points="668.38 1643.52 681.38 1643.52 681.38 1738.35 668.38 1738.35 668.38 1643.52"/><polygon class="cls-3" points="952.76 1671.56 976.32 1671.56 976.32 1738.35 952.76 1738.35 952.76 1671.56"/><polygon class="cls-3" points="952.76 1687.57 1011.74 1687.57 1011.74 1738.35 952.76 1738.35 952.76 1687.57"/><polygon class="cls-3" points="1127.95 1662.82 1151.51 1662.82 1151.51 1738.35 1127.95 1738.35 1127.95 1662.82"/><polygon class="cls-3" points="1119 1683.2 1151.51 1683.2 1151.51 1738.35 1119 1738.35 1119 1683.2"/><polygon class="cls-3" points="1261.17 1639.44 1284.73 1639.44 1284.73 1738.35 1261.17 1738.35 1261.17 1639.44"/><polygon class="cls-3" points="1389.58 1639.44 1413.14 1639.44 1413.14 1738.35 1389.58 1738.35 1389.58 1639.44"/><polygon class="cls-3" points="1389.58 1667.82 1427.92 1667.82 1427.92 1738.35 1389.58 1738.35 1389.58 1667.82"/><polygon class="cls-3" points="1648.8 1646.64 1687.14 1646.64 1687.14 1738.35 1648.8 1738.35 1648.8 1646.64"/><polygon class="cls-3" points="1691.12 1678.39 1729.47 1678.39 1729.47 1738.35 1691.12 1738.35 1691.12 1678.39"/><polygon class="cls-3" points="1711.19 1673.59 1726.58 1673.59 1726.58 1738.35 1711.19 1738.35 1711.19 1673.59"/><polygon class="cls-3" points="358.26 1455.96 523.59 1455.96 523.59 1738.35 358.26 1738.35 358.26 1455.96"/><polygon class="cls-3" points="362.88 1451.86 365.9 1451.86 365.9 1738.35 362.88 1738.35 362.88 1451.86"/><polygon class="cls-3" points="369.87 1451.86 372.89 1451.86 372.89 1738.35 369.87 1738.35 369.87 1451.86"/><polygon class="cls-3" points="376.86 1451.86 379.88 1451.86 379.88 1738.35 376.86 1738.35 376.86 1451.86"/><polygon class="cls-3" points="383.85 1451.86 386.87 1451.86 386.87 1738.35 383.85 1738.35 383.85 1451.86"/><polygon class="cls-3" points="390.85 1451.86 393.85 1451.86 393.85 1738.35 390.85 1738.35 390.85 1451.86"/><polygon class="cls-3" points="397.84 1451.86 400.85 1451.86 400.85 1738.35 397.84 1738.35 397.84 1451.86"/><polygon class="cls-3" points="404.82 1451.86 407.84 1451.86 407.84 1738.35 404.82 1738.35 404.82 1451.86"/><polygon class="cls-3" points="411.81 1451.86 414.83 1451.86 414.83 1738.35 411.81 1738.35 411.81 1451.86"/><polygon class="cls-3" points="418.81 1451.86 421.82 1451.86 421.82 1738.35 418.81 1738.35 418.81 1451.86"/><polygon class="cls-3" points="425.8 1451.86 428.81 1451.86 428.81 1738.35 425.8 1738.35 425.8 1451.86"/><polygon class="cls-3" points="432.79 1451.86 435.81 1451.86 435.81 1738.35 432.79 1738.35 432.79 1451.86"/><polygon class="cls-3" points="439.78 1451.86 442.79 1451.86 442.79 1738.35 439.78 1738.35 439.78 1451.86"/><polygon class="cls-3" points="446.76 1451.86 449.79 1451.86 449.79 1738.35 446.76 1738.35 446.76 1451.86"/><polygon class="cls-3" points="453.76 1451.86 456.78 1451.86 456.78 1738.35 453.76 1738.35 453.76 1451.86"/><polygon class="cls-3" points="460.75 1451.86 463.77 1451.86 463.77 1738.35 460.75 1738.35 460.75 1451.86"/><polygon class="cls-3" points="467.75 1451.86 470.76 1451.86 470.76 1738.35 467.75 1738.35 467.75 1451.86"/><polygon class="cls-3" points="474.73 1451.86 477.75 1451.86 477.75 1738.35 474.73 1738.35 474.73 1451.86"/><polygon class="cls-3" points="481.73 1451.86 484.74 1451.86 484.74 1738.35 481.73 1738.35 481.73 1451.86"/><polygon class="cls-3" points="488.72 1451.86 491.73 1451.86 491.73 1738.35 488.72 1738.35 488.72 1451.86"/><polygon class="cls-3" points="495.7 1451.86 498.72 1451.86 498.72 1738.35 495.7 1738.35 495.7 1451.86"/><polygon class="cls-3" points="540.32 1523.54 624.85 1523.54 624.85 1738.35 540.32 1738.35 540.32 1523.54"/><polygon class="cls-3" points="569.36 1517.39 595.83 1517.39 595.83 1738.35 569.36 1738.35 569.36 1517.39"/><polygon class="cls-3" points="695.02 1517.39 721.48 1517.39 721.48 1738.35 695.02 1738.35 695.02 1517.39"/><polygon class="cls-3" points="695.02 1520.75 779.55 1520.75 779.55 1738.35 695.02 1738.35 695.02 1520.75"/><polygon class="cls-3" points="865.67 1549.17 958.12 1549.17 958.12 1738.35 865.67 1738.35 865.67 1549.17"/><polygon class="cls-3" points="870.55 1547.34 902.47 1547.34 902.47 1736.52 870.55 1736.52 870.55 1547.34"/><polygon class="cls-3" points="919.48 1547.34 951.39 1547.34 951.39 1736.52 919.48 1736.52 919.48 1547.34"/><polygon class="cls-3" points="1028.35 1609.72 1120.81 1609.72 1120.81 1738.35 1028.35 1738.35 1028.35 1609.72"/><polygon class="cls-3" points="1143.34 1642.75 1235.79 1642.75 1235.79 1738.35 1143.34 1738.35 1143.34 1642.75"/><polygon class="cls-3" points="1274.22 1626.84 1304.33 1626.84 1304.33 1738.35 1274.22 1738.35 1274.22 1626.84"/><polygon class="cls-3" points="1357.13 1603.25 1387.22 1603.25 1387.22 1738.35 1357.13 1738.35 1357.13 1603.25"/><polygon class="cls-3" points="1357.13 1654.58 1400.27 1654.58 1400.27 1738.35 1357.13 1738.35 1357.13 1654.58"/><polygon class="cls-3" points="1416.04 1623.02 1459.19 1623.02 1459.19 1738.35 1416.04 1738.35 1416.04 1623.02"/><polygon class="cls-3" points="1442.13 1609.14 1485.27 1609.14 1485.27 1738.35 1442.13 1738.35 1442.13 1609.14"/><polygon class="cls-3" points="1557.01 1609.14 1600.15 1609.14 1600.15 1738.35 1557.01 1738.35 1557.01 1609.14"/><polygon class="cls-3" points="1638.65 1678.57 1681.79 1678.57 1681.79 1738.35 1638.65 1738.35 1638.65 1678.57"/><polygon class="cls-3" points="1675.06 1661.32 1709.57 1661.32 1709.57 1738.35 1675.06 1738.35 1675.06 1661.32"/><polygon class="cls-3" points="1696.1 1719.4 1728.51 1719.4 1728.51 1738.35 1696.1 1738.35 1696.1 1719.4"/><polygon class="cls-3" points="1719.67 1713.5 1735.24 1713.5 1735.24 1738.35 1719.67 1738.35 1719.67 1713.5"/><polygon class="cls-3" points="203.29 1643.23 287.82 1643.23 287.82 1738.35 203.29 1738.35 203.29 1643.23"/><polygon class="cls-3" points="266.82 1639.27 283.55 1639.27 283.55 1738.35 266.82 1738.35 266.82 1639.27"/><polygon class="cls-3" points="225.03 1634.43 261.54 1634.43 261.54 1738.35 225.03 1738.35 225.03 1634.43"/><polygon class="cls-3" points="246.15 1630.03 257.59 1630.03 257.59 1738.35 246.15 1738.35 246.15 1630.03"/><polygon class="cls-3" points="580.72 1517.51 582.6 1462.55 584.48 1517.51 580.72 1517.51"/><polygon class="cls-3" points="332.63 1738.35 336.24 1738.35 352 1738.35 355.61 1738.35 355.61 1730.94 352 1730.94 352 1722.18 348.77 1722.18 348.77 1699.56 339.47 1699.56 339.47 1722.18 336.24 1722.18 336.24 1730.94 332.63 1730.94 332.63 1738.35"/><polygon class="cls-3" points="306.87 1738.35 497.98 1738.35 497.98 1547.84 306.87 1547.84 306.87 1738.35"/><polygon class="cls-3" points="306.87 1738.35 309.58 1738.35 309.58 1539.86 306.87 1539.86 306.87 1738.35"/><polygon class="cls-3" points="325.5 1738.35 482.97 1738.35 482.97 1536.21 325.5 1536.21 325.5 1738.35"/><polygon class="cls-3" points="574.42 1738.35 657.02 1738.35 657.02 1568.85 574.42 1568.85 574.42 1738.35"/><polygon class="cls-3" points="586.91 1726.67 606 1726.67 606 1559.12 586.91 1559.12 586.91 1726.67"/><polygon class="cls-3" points="618.84 1726.67 637.93 1726.67 637.93 1559.12 618.84 1559.12 618.84 1726.67"/><polygon class="cls-3" points="738.14 1738.35 933.53 1738.35 933.53 1564.11 738.14 1564.11 738.14 1738.35"/><polygon class="cls-3" points="992.74 1738.35 1082.55 1738.35 1082.55 1495.95 992.74 1495.95 992.74 1738.35"/><polygon class="cls-3" points="988.63 1738.35 1108.96 1738.35 1108.96 1734.98 988.63 1734.98 988.63 1738.35"/><polygon class="cls-3" points="988.63 1731.61 1108.96 1731.61 1108.96 1728.24 988.63 1728.24 988.63 1731.61"/><polygon class="cls-3" points="988.63 1724.86 1108.96 1724.86 1108.96 1721.49 988.63 1721.49 988.63 1724.86"/><polygon class="cls-3" points="988.63 1718.12 1108.96 1718.12 1108.96 1714.75 988.63 1714.75 988.63 1718.12"/><polygon class="cls-3" points="988.63 1711.37 1108.96 1711.37 1108.96 1708.01 988.63 1708.01 988.63 1711.37"/><polygon class="cls-3" points="988.63 1704.63 1108.96 1704.63 1108.96 1701.26 988.63 1701.26 988.63 1704.63"/><polygon class="cls-3" points="988.63 1697.89 1108.96 1697.89 1108.96 1694.52 988.63 1694.52 988.63 1697.89"/><polygon class="cls-3" points="988.63 1691.14 1108.96 1691.14 1108.96 1687.78 988.63 1687.78 988.63 1691.14"/><polygon class="cls-3" points="988.63 1684.4 1108.96 1684.4 1108.96 1681.04 988.63 1681.04 988.63 1684.4"/><polygon class="cls-3" points="988.63 1677.66 1108.96 1677.66 1108.96 1674.29 988.63 1674.29 988.63 1677.66"/><polygon class="cls-3" points="988.63 1670.91 1108.96 1670.91 1108.96 1667.55 988.63 1667.55 988.63 1670.91"/><polygon class="cls-3" points="988.63 1664.17 1108.96 1664.17 1108.96 1660.8 988.63 1660.8 988.63 1664.17"/><polygon class="cls-3" points="988.63 1657.43 1108.96 1657.43 1108.96 1654.06 988.63 1654.06 988.63 1657.43"/><polygon class="cls-3" points="988.63 1650.68 1108.96 1650.68 1108.96 1647.32 988.63 1647.32 988.63 1650.68"/><polygon class="cls-3" points="988.63 1643.94 1108.96 1643.94 1108.96 1640.57 988.63 1640.57 988.63 1643.94"/><polygon class="cls-3" points="988.63 1637.2 1108.96 1637.2 1108.96 1633.83 988.63 1633.83 988.63 1637.2"/><polygon class="cls-3" points="988.63 1630.45 1108.96 1630.45 1108.96 1627.09 988.63 1627.09 988.63 1630.45"/><polygon class="cls-3" points="988.63 1623.71 1108.96 1623.71 1108.96 1620.34 988.63 1620.34 988.63 1623.71"/><polygon class="cls-3" points="988.63 1616.97 1108.96 1616.97 1108.96 1613.6 988.63 1613.6 988.63 1616.97"/><polygon class="cls-3" points="988.63 1610.22 1108.96 1610.22 1108.96 1606.86 988.63 1606.86 988.63 1610.22"/><polygon class="cls-3" points="988.63 1603.49 1108.96 1603.49 1108.96 1600.11 988.63 1600.11 988.63 1603.49"/><polygon class="cls-3" points="988.63 1596.74 1108.96 1596.74 1108.96 1593.37 988.63 1593.37 988.63 1596.74"/><polygon class="cls-3" points="988.63 1590 1108.96 1590 1108.96 1586.63 988.63 1586.63 988.63 1590"/><polygon class="cls-3" points="988.63 1583.26 1108.96 1583.26 1108.96 1579.88 988.63 1579.88 988.63 1583.26"/><polygon class="cls-3" points="988.63 1576.5 1108.96 1576.5 1108.96 1573.14 988.63 1573.14 988.63 1576.5"/><polygon class="cls-3" points="988.63 1569.76 1108.96 1569.76 1108.96 1566.39 988.63 1566.39 988.63 1569.76"/><polygon class="cls-3" points="988.63 1563.02 1108.96 1563.02 1108.96 1559.65 988.63 1559.65 988.63 1563.02"/><polygon class="cls-3" points="1085.73 1556.27 1108.96 1556.27 1108.96 1550.45 1085.73 1550.45 1085.73 1556.27"/><polygon class="cls-3" points="988.63 1556.27 1086.76 1556.27 1086.76 1552.91 988.63 1552.91 988.63 1556.27"/><polygon class="cls-3" points="988.63 1549.53 1086.76 1549.53 1086.76 1546.16 988.63 1546.16 988.63 1549.53"/><polygon class="cls-3" points="988.63 1542.79 1086.76 1542.79 1086.76 1539.42 988.63 1539.42 988.63 1542.79"/><polygon class="cls-3" points="988.63 1536.04 1086.76 1536.04 1086.76 1532.68 988.63 1532.68 988.63 1536.04"/><polygon class="cls-3" points="988.63 1529.3 1086.76 1529.3 1086.76 1525.93 988.63 1525.93 988.63 1529.3"/><polygon class="cls-3" points="988.63 1522.56 1086.76 1522.56 1086.76 1519.19 988.63 1519.19 988.63 1522.56"/><polygon class="cls-3" points="988.63 1515.81 1086.76 1515.81 1086.76 1512.45 988.63 1512.45 988.63 1515.81"/><polygon class="cls-3" points="988.63 1509.07 1086.76 1509.07 1086.76 1505.7 988.63 1505.7 988.63 1509.07"/><polygon class="cls-3" points="988.63 1502.33 1086.76 1502.33 1086.76 1495.02 988.63 1495.02 988.63 1502.33"/><polygon class="cls-3" points="992.74 1738.35 1104.11 1738.35 1104.11 1553.97 992.74 1553.97 992.74 1738.35"/><polygon class="cls-3" points="1156.95 1738.35 1225.48 1738.35 1225.48 1580.57 1156.95 1580.57 1156.95 1738.35"/><polygon class="cls-3" points="1281.5 1738.35 1373.34 1738.35 1373.34 1422.51 1281.5 1422.51 1281.5 1738.35"/><polygon class="cls-3" points="1281.5 1738.35 1284.49 1738.35 1284.49 1418.72 1281.5 1418.72 1281.5 1738.35"/><polygon class="cls-3" points="1291.81 1738.35 1294.8 1738.35 1294.8 1418.72 1291.81 1418.72 1291.81 1738.35"/><polygon class="cls-3" points="1302.13 1738.35 1305.11 1738.35 1305.11 1418.72 1302.13 1418.72 1302.13 1738.35"/><polygon class="cls-3" points="1312.44 1738.35 1315.42 1738.35 1315.42 1418.72 1312.44 1418.72 1312.44 1738.35"/><polygon class="cls-3" points="1322.75 1738.35 1325.73 1738.35 1325.73 1418.72 1322.75 1418.72 1322.75 1738.35"/><polygon class="cls-3" points="1333.07 1738.35 1336.05 1738.35 1336.05 1418.72 1333.07 1418.72 1333.07 1738.35"/><polygon class="cls-3" points="1343.37 1738.35 1346.37 1738.35 1346.37 1418.72 1343.37 1418.72 1343.37 1738.35"/><polygon class="cls-3" points="1353.69 1738.35 1356.68 1738.35 1356.68 1418.72 1353.69 1418.72 1353.69 1738.35"/><polygon class="cls-3" points="1364 1738.35 1371.09 1738.35 1371.09 1418.72 1364 1418.72 1364 1738.35"/><polygon class="cls-3" points="1467.57 1738.35 1574.6 1738.35 1574.6 1560.6 1467.57 1560.6 1467.57 1738.35"/><polygon class="cls-3" points="1487.27 1667.63 1554.89 1667.63 1554.89 1463.97 1487.27 1463.97 1487.27 1667.63"/><polygon class="cls-3" points="1471.56 1738.35 1485.33 1738.35 1556.85 1738.35 1570.62 1738.35 1570.62 1546.72 1556.85 1534.69 1485.33 1534.69 1471.56 1546.72 1471.56 1738.35"/><polygon class="cls-3" points="1489.28 1667.63 1552.89 1667.63 1552.89 1460.76 1489.28 1460.76 1489.28 1667.63"/><polygon class="cls-3" points="1491.59 1667.63 1520.63 1667.63 1521.55 1667.63 1550.59 1667.63 1550.59 1452.99 1521.55 1419.93 1520.63 1419.93 1491.59 1452.99 1491.59 1667.63"/><polygon class="cls-3" points="1581.83 1738.35 1662.67 1738.35 1662.67 1633.19 1581.83 1633.19 1581.83 1738.35"/><polygon class="cls-3" points="1581.83 1738.35 1635.79 1738.35 1635.79 1622.64 1581.83 1622.64 1581.83 1738.35"/><polygon class="cls-3" points="1646.45 1738.35 1653.79 1738.35 1653.79 1628.37 1646.45 1628.37 1646.45 1738.35"/><polygon class="cls-3" points="1670.18 1738.35 1712.69 1738.35 1712.69 1706.91 1670.18 1706.91 1670.18 1738.35"/><polygon class="cls-3" points="1667.42 1738.35 1705.87 1738.35 1705.87 1685.64 1667.42 1685.64 1667.42 1738.35"/><polygon class="cls-3" points="1228.35 1738.35 1269.93 1738.35 1269.93 1673.06 1228.35 1673.06 1228.35 1738.35"/><polygon class="cls-3" points="664.57 1675.45 733.26 1675.45 733.26 1738.35 664.57 1738.35 664.57 1675.45"/><polygon class="cls-3" points="674.38 1665.02 723.45 1665.02 723.45 1723.63 674.38 1723.63 674.38 1665.02"/><polygon class="cls-3" points="502.64 1710.41 571.34 1710.41 571.34 1738.35 502.64 1738.35 502.64 1710.41"/><polygon class="cls-3" points="502.64 1704.28 522.88 1704.28 522.88 1738.35 502.64 1738.35 502.64 1704.28"/><polygon class="cls-3" points="532.08 1696.91 552.32 1696.91 552.32 1738.35 532.08 1738.35 532.08 1696.91"/><polygon class="cls-3" points="960.21 1704.28 983.51 1704.28 983.51 1738.35 960.21 1738.35 960.21 1704.28"/><polygon class="cls-3" points="938.74 1709.8 983.51 1709.8 983.51 1738.35 938.74 1738.35 938.74 1709.8"/><polygon class="cls-3" points="938.74 1704.28 951.63 1704.28 951.63 1738.35 938.74 1738.35 938.74 1704.28"/><polygon class="cls-3" points="1138.69 1709.8 1183.47 1709.8 1183.47 1738.35 1138.69 1738.35 1138.69 1709.8"/><polygon class="cls-3" points="1142.99 1704.89 1154.03 1704.89 1154.03 1733.45 1142.99 1733.45 1142.99 1704.89"/><polygon class="cls-3" points="1231.92 1669.32 1258.3 1669.32 1258.3 1697.87 1231.92 1697.87 1231.92 1669.32"/><polygon class="cls-3" points="1377.62 1738.35 1419.2 1738.35 1419.2 1686.3 1377.62 1686.3 1377.62 1738.35"/><polygon class="cls-3" points="1426.05 1738.35 1474.28 1738.35 1474.28 1654.85 1426.05 1654.85 1426.05 1738.35"/><polygon class="cls-3" points="1431.02 1738.35 1463.92 1738.35 1463.92 1636.38 1431.02 1636.38 1431.02 1738.35"/><polygon class="cls-3" points="728.31 1719.96 752.02 1719.96 752.02 1742.03 728.31 1742.03 728.31 1719.96"/><polygon class="cls-3" points="975.38 1726.03 1005.17 1726.03 1005.17 1739.27 975.38 1739.27 975.38 1726.03"/><polygon class="cls-3" points="927.4 1729.89 947.25 1729.89 947.25 1740.37 927.4 1740.37 927.4 1729.89"/><polygon class="cls-3" points="644.48 1711.7 672.61 1711.7 672.61 1739.27 644.48 1739.27 644.48 1711.7"/><polygon class="cls-3" points="566.72 1729.89 580.5 1729.89 580.5 1738.71 566.72 1738.71 566.72 1729.89"/><polygon class="cls-3" points="1261.42 1710.67 1276.63 1710.67 1276.63 1738.33 1261.42 1738.33 1261.42 1710.67"/><polygon class="cls-3" points="1272.4 1701.36 1290.44 1701.36 1290.44 1741.43 1272.4 1741.43 1272.4 1701.36"/><polygon class="cls-3" points="1368.21 1724.49 1392.44 1724.49 1392.44 1741.99 1368.21 1741.99 1368.21 1724.49"/><polygon class="cls-3" points="1421.17 1701.07 1438.93 1701.07 1438.93 1743.69 1421.17 1743.69 1421.17 1701.07"/><polygon class="cls-3" points="1412.72 1717.44 1430.19 1717.44 1430.19 1738.89 1412.72 1738.89 1412.72 1717.44"/><polygon class="cls-3" points="1566.3 1704.03 1579.31 1704.03 1579.31 1741.15 1566.3 1741.15 1566.3 1704.03"/><polygon class="cls-3" points="1591.5 1714.56 1574.33 1714.56 1574.33 1743.65 1591.5 1743.65 1591.5 1714.56"/><polygon class="cls-3" points="1657.17 1717.6 1676.28 1717.6 1676.28 1742.54 1657.17 1742.54 1657.17 1717.6"/><polygon class="cls-3" points="1727.53 1729.16 1697.04 1729.16 1697.04 1743.8 1727.53 1743.8 1727.53 1729.16"/><polygon class="cls-4" points="-1.21 1749.9 1870.7 1749.9 1870.7 1737.46 -1.21 1737.46 -1.21 1749.9"/></g><path class="cls-5" d="M1715.77,1657.87a1.9,1.9,0,0,1,1.39.82l4.5,6.62,11.17-12.87a1.94,1.94,0,0,1,1.44-.66,1.9,1.9,0,0,1,1.44.67l11,12.92,5-6.74a1.9,1.9,0,0,1,2.66-.39l8.27,6.17-8.93-26.34-3.68-2.75-4,5.34a1.9,1.9,0,0,1-3,.1l-8.52-10-8.7,10a1.9,1.9,0,0,1-3-.18l-3.39-5-2.1,2.08-9,26.51,5.85-5.79A1.9,1.9,0,0,1,1715.77,1657.87Z"/><path class="cls-5" d="M1719.94,1630.77a1.9,1.9,0,0,1,1.39.82l3.29,4.83,8.53-9.83a1.9,1.9,0,0,1,1.44-.66h0a1.9,1.9,0,0,1,1.44.67l8.41,9.88,3.67-5a1.9,1.9,0,0,1,2.66-.39l.79.59-16.09-47.48-15.76,46.53Z"/><path class="cls-5" d="M1710.14,1679.16a1.9,1.9,0,0,1,2.67.26l5.83,7.08,14-13.33a1.9,1.9,0,0,1,2.63,0l13.76,13.36,6.45-7.19a1.9,1.9,0,0,1,2.41-.35l12.43,7.66h3.5l-11.55-17.82-8.63-6.44-5.29,7.13a1.9,1.9,0,0,1-1.46.77,1.85,1.85,0,0,1-1.51-.67l-11.11-13.05-11.33,13.07a1.9,1.9,0,0,1-3-.18l-4.61-6.77-7.12,7.05-.1.08-10.91,16.83H1701Z"/><path class="cls-5" d="M1776.45,1707.3h8.26l-13.52-16.14a1.86,1.86,0,0,1-.28,0,1.89,1.89,0,0,1-1-.28l-12.69-7.82-6.71,7.48a1.9,1.9,0,0,1-2.74.1l-13.87-13.46-14.14,13.47a1.9,1.9,0,0,1-2.78-.17l-5.93-7.2-9.11,7.46a1.9,1.9,0,0,1-2,.23l-13.66,16.31h8.25l-14.68,17.53h43.91v13h23.49v-13h43.91Z"/><path class="cls-5" d="M1798.12,1666a1.68,1.68,0,0,1,1.23.73l4,5.86,9.89-11.4a1.71,1.71,0,0,1,1.28-.58,1.68,1.68,0,0,1,1.27.59l9.74,11.44,4.43-6a1.68,1.68,0,0,1,2.36-.35l7.33,5.47-7.9-23.33-3.26-2.43-3.51,4.73a1.68,1.68,0,0,1-2.63.09l-7.55-8.87-7.7,8.88a1.7,1.7,0,0,1-1.37.58,1.68,1.68,0,0,1-1.29-.73l-3-4.41-1.86,1.84-7.95,23.47,5.18-5.13A1.68,1.68,0,0,1,1798.12,1666Z"/><path class="cls-5" d="M1801.82,1642a1.68,1.68,0,0,1,1.23.73L1806,1647l7.55-8.71a1.69,1.69,0,0,1,1.27-.58h0a1.68,1.68,0,0,1,1.27.59l7.45,8.75,3.25-4.39a1.68,1.68,0,0,1,2.36-.35l.7.52-14.25-42-14,41.2Z"/><path class="cls-5" d="M1793.13,1684.88a1.68,1.68,0,0,1,2.36.23l5.16,6.27,12.38-11.8a1.68,1.68,0,0,1,2.33,0l12.18,11.83,5.71-6.36a1.68,1.68,0,0,1,2.14-.31l11,6.78h3.1l-10.23-15.78-7.64-5.7-4.68,6.31a1.68,1.68,0,0,1-1.29.68,1.65,1.65,0,0,1-1.34-.59l-9.84-11.56-10,11.57a1.68,1.68,0,0,1-2.66-.15l-4.08-6-6.31,6.24-.09.07-9.66,14.9H1785Z"/><path class="cls-5" d="M1851.86,1709.8h7.31l-12-14.3a1.62,1.62,0,0,1-.24,0,1.67,1.67,0,0,1-.88-.25l-11.24-6.93-5.94,6.62a1.68,1.68,0,0,1-2.42.08l-12.28-11.92-12.52,11.93a1.68,1.68,0,0,1-2.46-.15l-5.25-6.37-8.07,6.6a1.68,1.68,0,0,1-1.81.2L1772,1709.8h7.31l-13,15.52h38.88v11.53H1826v-11.53h38.89Z"/><path class="cls-5" d="M1767,1678.32a1.41,1.41,0,0,1,1,.61l3.35,4.93,8.32-9.58a1.44,1.44,0,0,1,1.07-.49,1.42,1.42,0,0,1,1.07.5l8.19,9.62,3.72-5a1.41,1.41,0,0,1,2-.29l6.16,4.6-6.65-19.62-2.74-2-2.95,4a1.41,1.41,0,0,1-2.21.07l-6.35-7.46-6.48,7.47a1.43,1.43,0,0,1-1.15.49,1.41,1.41,0,0,1-1.09-.62l-2.53-3.71-1.56,1.55-6.68,19.74,4.36-4.31A1.41,1.41,0,0,1,1767,1678.32Z"/><path class="cls-5" d="M1770.07,1658.14a1.41,1.41,0,0,1,1,.61l2.45,3.6,6.35-7.32a1.41,1.41,0,0,1,1.07-.49h0a1.41,1.41,0,0,1,1.07.5l6.26,7.35,2.73-3.69a1.41,1.41,0,0,1,2-.29l.59.44-12-35.36-11.73,34.65Z"/><path class="cls-5" d="M1762.77,1694.17a1.42,1.42,0,0,1,2,.2l4.34,5.27,10.41-9.92a1.41,1.41,0,0,1,2,0l10.25,9.95,4.8-5.35a1.42,1.42,0,0,1,1.8-.26l9.25,5.7h2.61l-8.6-13.27-6.43-4.79-3.94,5.31a1.41,1.41,0,0,1-1.09.57,1.38,1.38,0,0,1-1.12-.5l-8.28-9.72-8.44,9.73a1.41,1.41,0,0,1-2.24-.13l-3.43-5-5.3,5.25-.08.06-8.13,12.53h2.82Z"/><path class="cls-5" d="M1812.15,1715.13h6.15l-10.07-12-.21,0a1.41,1.41,0,0,1-.74-.21l-9.45-5.83-5,5.57a1.42,1.42,0,0,1-2,.07l-10.33-10-10.53,10a1.42,1.42,0,0,1-1.06.39,1.41,1.41,0,0,1-1-.51l-4.41-5.36-6.79,5.55a1.41,1.41,0,0,1-1.52.17L1745,1715.13h6.14l-10.93,13.05h32.7v9.7h17.49v-9.7h32.7Z"/><path class="cls-1" d="M373.22,1736.48a20,20,0,1,1,20-20A20,20,0,0,1,373.22,1736.48Zm0-37.48a17.51,17.51,0,1,0,17.52,17.51A17.53,17.53,0,0,0,373.22,1699Z"/><path class="cls-1" d="M446.41,1736.71a20,20,0,1,1,20-20A20,20,0,0,1,446.41,1736.71Zm0-37.48a17.51,17.51,0,1,0,17.51,17.51A17.54,17.54,0,0,0,446.41,1699.23Z"/><path class="cls-1" d="M373.22,1717.74a1.23,1.23,0,0,1-1-1.92L391,1688.89a1.23,1.23,0,0,1,2,1.4l-18.74,26.92A1.22,1.22,0,0,1,373.22,1717.74Z"/><rect class="cls-1" x="391.96" y="1688.36" width="31.63" height="2.45"/><rect class="cls-1" x="388.74" y="1675.98" width="2.45" height="13.91" transform="translate(-467.92 183.48) rotate(-16.73)"/><path class="cls-1" d="M388,1677.5h-5.37a1.23,1.23,0,0,1,0-2.45H388a1.23,1.23,0,1,1,0,2.45Z"/><ellipse class="cls-1" cx="423.59" cy="1681.32" rx="6.07" ry="3.33"/><path class="cls-1" d="M446.41,1718.95h-26a1.22,1.22,0,1,1,0-2.45h26a1.22,1.22,0,0,1,0,2.45Z"/><path class="cls-1" d="M420.41,1718.95h-.11a1.22,1.22,0,0,1-1.11-1.33l3.18-34.79a1.22,1.22,0,1,1,2.44.22l-3.18,34.79A1.22,1.22,0,0,1,420.41,1718.95Z"/><path class="cls-1" d="M446.41,1718.95a1.22,1.22,0,0,1-1-.45l-22.82-28.13a1.22,1.22,0,1,1,1.9-1.54L447.36,1717a1.22,1.22,0,0,1-1,2Z"/><path class="cls-1" d="M420.41,1718.95a1.22,1.22,0,0,1-.74-.25l-31.33-24a1.22,1.22,0,1,1,1.49-1.95l31.33,24a1.22,1.22,0,0,1-.75,2.2Z"/><circle class="cls-1" cx="420.41" cy="1717.72" r="3.43"/><rect class="cls-1" x="410.06" y="1720.78" width="12.13" height="2.45" transform="translate(-1095.77 798.61) rotate(-45)"/><path class="cls-1" d="M415.26,1727.77h-5.14a1.23,1.23,0,0,1,0-2.45h5.14a1.23,1.23,0,1,1,0,2.45Z"/><path class="cls-1" d="M1506.65,1713.41a20.17,20.17,0,1,1,20.17,20.17A20.19,20.19,0,0,1,1506.65,1713.41Zm2.47,0a17.69,17.69,0,1,0,17.69-17.69A17.71,17.71,0,0,0,1509.12,1713.41Z"/><path class="cls-1" d="M1432.72,1713.64a20.17,20.17,0,1,1,20.17,20.17A20.19,20.19,0,0,1,1432.72,1713.64Zm2.47,0a17.69,17.69,0,1,0,17.69-17.69A17.71,17.71,0,0,0,1435.19,1713.64Z"/><path class="cls-1" d="M1526.82,1714.65a1.22,1.22,0,0,0,.71-.22,1.24,1.24,0,0,0,.31-1.72l-18.93-27.2a1.24,1.24,0,0,0-2,1.41l18.93,27.2A1.24,1.24,0,0,0,1526.82,1714.65Z"/><rect class="cls-1" x="1475.94" y="1684.98" width="31.95" height="2.47"/><rect class="cls-1" x="1502.88" y="1678.25" width="14.05" height="2.47" transform="translate(-533.11 2642.07) rotate(-73.27)"/><path class="cls-1" d="M1511.93,1674h5.42a1.24,1.24,0,1,0,0-2.48h-5.42a1.24,1.24,0,0,0,0,2.48Z"/><ellipse class="cls-1" cx="1475.94" cy="1677.86" rx="6.13" ry="3.36"/><path class="cls-1" d="M1452.89,1715.87h26.27a1.24,1.24,0,1,0,0-2.47h-26.27a1.24,1.24,0,1,0,0,2.47Z"/><path class="cls-1" d="M1479.15,1715.87h.11a1.24,1.24,0,0,0,1.12-1.35l-3.22-35.14a1.24,1.24,0,1,0-2.46.23l3.22,35.14A1.24,1.24,0,0,0,1479.15,1715.87Z"/><path class="cls-1" d="M1452.89,1715.87a1.24,1.24,0,0,0,1-.46l23-28.42a1.24,1.24,0,1,0-1.92-1.56l-23,28.42a1.24,1.24,0,0,0,1,2Z"/><path class="cls-1" d="M1479.15,1715.87a1.23,1.23,0,0,0,.75-.25l31.65-24.23a1.24,1.24,0,1,0-1.51-2l-31.65,24.23a1.24,1.24,0,0,0,.75,2.22Z"/><circle class="cls-1" cx="1479.15" cy="1714.63" r="3.46"/><rect class="cls-1" x="1482.25" y="1712.84" width="2.47" height="12.25" transform="translate(-780.99 1552.51) rotate(-45)"/><path class="cls-1" d="M1484.35,1724.78h5.2a1.24,1.24,0,0,0,0-2.48h-5.2a1.24,1.24,0,0,0,0,2.48Z"/></svg>