<svg id="oregon" xmlns="http://www.w3.org/2000/svg" viewBox="0 0 1872 1872"><defs><style>.cls-1{fill:#f7e943;}.cls-2{fill:#13a56d;}</style></defs><title>layer2</title><path class="cls-1" d="M981.49,670.39c9.78-9,19.36-18.68,28.63-28,6.6-6.64,13.43-13.5,20.29-20.12,5.08-4.9,5.37-9.32,1.15-17.54-2.92-5.71-6.65-7.36-13.74-6.11-10.27,1.82-20.37,3.26-31.05,4.78-4.4.63-8.83,1.26-13.3,1.92l-3.64.54-.36-3.66c-1.42-14.6-8.71-25.65-23.63-35.84-1.84-1.26-3.79-2.49-5.67-3.68a103.42,103.42,0,0,1-11.4-8,59.68,59.68,0,0,1-11.08-13.08c-1.6-2.42-1.13-6.28-.67-8A5.35,5.35,0,0,1,919.7,530c10.24-4.93,14.78-13.79,18.15-22.62.38-1,.81-1.95,1.19-2.78,1.74-3.83,1.74-4.26,0-5.83-2.23-2-4.08-2.32-8.52,1-12.46,9.29-20.45,6-26,2.16-1.78-1.24-5.52-1.18-8.83-1.12-1.08,0-2.15,0-3.17,0a52.93,52.93,0,0,0-7.79.62c-1,.13-1.94.25-2.77.33l-4.73.46,1-4.66c.76-3.67,1.58-7.31,2.37-10.84,1.83-8.17,3.56-15.88,4.66-23.76.24-1.71.07-2.95-.49-3.68-1.15-1.49-4.58-1.91-7.33-2.25-.89-.11-1.75-.22-2.55-.35-1.28-.21-1.88-.05-2,.07-.69.56-.83,3.48-.92,5.23,0,.42,0,.83-.07,1.24-.22,3.61-.63,7.21-1,10.7-.29,2.5-.59,5.08-.8,7.6-.44,5.11-2.22,8.56-5.3,10.26s-7,1.38-11.64-1c-12.63-6.51-26.17-13.73-42.62-22.73-.84-.46-1.62-1-2.37-1.45-1-.62-2.75-1.77-3.25-1.65,0,0-.61.19-1.6,1.91l-.27.47c-1.57,2.71-3.18,5.51-2.71,7.2.33,1.19,1.86,2.22,3.09,2.89l46.48,25.17-20.62-3.43c-1.71-.28-3-.49-4.12-.66-1.88-.29-3.12-.48-4.38-.78-22.65-5.36-42-16.51-57.87-26.72-2.7-1.73-6-2.51-6.86-2.17s-2.15,2.89-2.14,7.5,1.51,7.91,2.55,8.38l7.63,3.47c14.4,6.57,29.28,13.37,44.41,18.21,8.72,2.79,17.94,3.86,27.71,5,4.33.5,8.8,1,13.23,1.71l5.84.9-3.6,4.69c-.57.74-1.15,1.43-1.72,2.08a16.72,16.72,0,0,0-2.52,3.47c-.26.56-.55,1.16-.84,1.77-.68,1.41-2.06,4.26-2.11,5.41.67.56,3.11,1.58,7,2a55.33,55.33,0,0,0,9.73-.15c1.29-.1,2.5-.19,3.61-.23l2.32-.09,1,2.11c1.27,2.71,2.52,5.34,3.75,7.91,3.32,7,6.46,13.52,9.14,20.34,1.48,3.76-.47,10.21-3.73,12.31-18.16,11.73-42.2,27.12-67.13,42.14-19.68,11.85-23.44,11.36-40.27-5.23-1-1-2.1-2.11-3.46-3.54l-.39-.41c-4.88-5.14-9.5-10-11.12-10.27-1.42.77-4.29,6.89-7.07,12.82l-.64,1.37c-2.39,5.09-2.78,9.22,3.07,12.82,6.45,4,13.12,7.35,19.57,10.61,2.58,1.31,5.08,2.57,7.42,3.81l.95.5,25.91,48.27-4.27,1.14c-1.56.42-2.92.71-4.13,1a16.77,16.77,0,0,0-4.57,1.36l-.75.44c-2,1.14-5.26,3.05-5.77,4.48-7,19.85-13.89,40.11-20.57,59.71-4.77,14-9.71,28.48-14.64,42.71-1.59,4.59-1,6,3.16,7.74,3.74,1.58,5,1.32,7.12-3.69,4.32-10.06,8.81-20.24,13.16-30.08,6.8-15.39,13.83-31.3,20.32-47.11,5-12.28,10.88-23.46,26.75-25.37,1.49-.18,3.38-1.48,5.21-2.73.61-.42,1.21-.83,1.8-1.21,18.53-11.9,29.3-24,34.92-39.21l1-2.59,2.74.33c28.8,3.45,52.38,2.86,73.84-11.19l1.94-1.28c7.14-4.77,15.24-10.16,26.53-5.76,1,.37,4.18-1,5.91-1.66.92-.38,1.82-.75,2.68-1.05,2.86-1,5.72-2.28,9.34-3.87,1.83-.8,3.86-1.69,6.18-2.68l13.2-5.63-9.13,11.08c-2.93,3.55-5.64,6.93-8.26,10.19-5.77,7.19-11.22,14-17.08,20.2-4.47,4.74-10.22,9.09-18.1,13.69a31,31,0,0,1-3.37,1.63c-1.17.51-3.12,1.36-3.33,1.89a4.13,4.13,0,0,0,.61,2.34c1,2.17,2.7,4.9,5,5.54,1.48.42,3.32-.07,5.46-1.47s4.61-2.92,6.87-4.32C969.82,679.21,976.25,675.23,981.49,670.39Z"/><path class="cls-2" d="M1213.82,908.8c-10.13-40.06-21.33-79.85-31.58-119.88-1.29-5,.32-10.83.68-16.27.13-2.06.93-4.14.74-6.15-.83-8.75-2.92-17.49-2.66-26.18.31-10.4-6.21-14.09-13.88-15.89-14.69-3.44-19.07-8.37-16.63-23.22,2.26-13.69,6.19-27.13,8-40.86,2.44-18.28,3.64-36.73,5.24-55.12.92-10.6,1.75-21.22,2.29-31.84.49-9.85-1.12-17.8-11.29-23.92-11.58-7-21.1-17.29-31.87-25.71-1.95-1.52-5.83-1.86-8.37-1.13-13.65,3.89-27,9-40.75,12.38-33.19,8.23-66.56,15.73-99.85,23.6-3.07.73-7.93,1.15-8.73,3.06a23.7,23.7,0,0,1-4.76,7.4c8.79,8.38,13.76,17.65,15.56,28.8l9.82-1.41c10.63-1.51,20.67-2.94,30.82-4.74s16.84,1.32,21.19,9.81c4,7.72,6.75,16.83-2.53,25.78-6.81,6.57-13.61,13.41-20.19,20-9.32,9.37-19,19.06-28.84,28.21-5.73,5.3-12.46,9.46-19,13.48-2.23,1.38-4.53,2.8-6.73,4.23-3.92,2.55-7.69,3.34-11.2,2.33-3.85-1.1-7-4.23-9.38-9.31-1.4-3-1.67-5.54-.82-7.78,1.25-3.3,4.49-4.71,7.08-5.83a25.45,25.45,0,0,0,2.63-1.26c7.28-4.25,12.53-8.2,16.53-12.44,5.46-5.8,10.42-11.94,16.08-19-1,.39-1.92.75-2.88,1.1-.76.27-1.56.6-2.37.94-3.54,1.45-7.54,3.1-11.11,1.71-7.9-3.08-13.29.52-20.11,5.06l-2,1.32c-23.76,15.56-50.38,15.45-75.81,12.6-4.23,10.32-13,24.86-36.7,40.1-.54.34-1.08.72-1.62,1.09-2.41,1.65-5.13,3.52-8.33,3.91-12.17,1.47-16.42,9.66-21.11,21.08-6.52,15.89-13.57,31.85-20.39,47.28-4.34,9.82-8.83,20-13.13,30-2.93,6.83-6.75,8.78-10.37,8.78a15.42,15.42,0,0,1-5.91-1.41c-7.59-3.21-9.83-8.45-7-16.48,4.92-14.2,9.85-28.68,14.62-42.67,6.68-19.61,13.6-39.89,20.59-59.77,1.36-3.87,5.52-6.28,8.86-8.22l.73-.42a20.09,20.09,0,0,1,6.09-2l-20.64-38.46c-2-1.06-4.17-2.14-6.38-3.26l-.54-.27a15.84,15.84,0,0,0-4.05,4.09c-10.35,13.56-39.55,24.57-55.12,19.39-4.09-1.36-7.56-6.85-9.73-11.22-3.92-7.88-5.95-16.72-10-24.5-8-15.33-23.76-21.64-41.18-18.52-5,.89-10.37-.75-15.57-1.23l-41.79,9.18c3.09,17.36,5.61,34.85,9.54,52,1.85,8.07,6.43,15.51,8.78,20.93-1.77,4.68-4.08,7.73-3.8,10.54q3.79,39.25,8.4,78.42c2.4,20.27,5.89,40.42,7.81,60.73,1.33,14,.76,28.18,1.14,42.27.09,3.13-.09,6.56,1.1,9.32,4.06,9.5,4.67,18.57,2.15,28.94-1.75,7.21,1.15,15.55,2.19,25.38-12.52,3.72-6.86,14.39-6.61,25.08.31,13.1-3.61,26.29-5.7,39.44l2.75,12.54c10.89,5,17.36,12.82,16.19,25.5-1.44,15.56,3.12,29.18,11.93,42.07,8.08,11.81,18.53,15.57,32,13q92.23-17.53,184.46-35c4.14-.78,8.41-.88,12.63-1.29l163-35.79c4.38-1.42,8.69-3.08,13.14-4.21q83.92-21.2,167.87-42.29c5.1-1.29,10.09-3,12.84-3.88C1224.63,957.35,1219.91,932.9,1213.82,908.8ZM745.47,1067l-20.42-10.36.21-48.87-15,12.68-16.72-24,.26,43.84-18.87-8.64V959.48L693,969l18.48,28.67L725.32,986l20.29,10.83Zm-67-112.74,69.8-31.72,21.45,9-44.66,21.79,24.71,12.12,42.68-22,25.62,10.87-69.29,37.14Zm143.13,29.57-45.65,23.77.09,23.73,45.43-22.74.13,23.08L752.14,1067,752,996.79l69.59-37.26Z"/></svg>