<svg id="things" xmlns="http://www.w3.org/2000/svg" viewBox="0 0 1872 1872"><defs><style>.cls-1,.cls-2,.cls-5{fill:#fff;}.cls-1{fill-rule:evenodd;}.cls-3{fill:#f7e943;}.cls-4{fill:#bf1e08;}.cls-5{font-size:70.49px;font-family:BrushScriptStd, Brush Script Std;}</style></defs><title>layer3</title><path class="cls-1" d="M1321.35,711.4l1.81-.09c2.16-.13,2.65.48,2.87,2.59a11.15,11.15,0,0,0,1.35,3.59c4.31,8.59,8.82,17.08,13,25.75s8.43,17.66,12,26.76c5.64,14.5,10.46,29.3,13.39,44.62,1.56,8.16,5.39,15,10.47,21.45,6.26,8,12.29,16.16,17.84,24.63s10.83,17.46,15.69,26.5c5.21,9.7,9.92,19.69,14.6,29.66,2.4,5.11,4.26,10.48,6.39,15.72a11.29,11.29,0,0,0,1.13,1.69c-.68,1.65-2.58,2.11-4.29,2.6-3.07.88-6.21,1.49-9.32,2.25a3.61,3.61,0,0,1-4-1.14,8.86,8.86,0,0,0-7.57-3.14c-3.74.1-7.49.4-11.22.73a88.31,88.31,0,0,1-23.54-.73c-9.78-1.76-17.6-6.87-24.48-13.84-10.45-10.57-15.6-23.38-16.63-38-.7-9.92,2.91-18.36,9.38-25.64,3.55-4,7.31-7.82,11.21-11.47,4.65-4.35,5.28-8.2,2-13.74-2.26-3.88-5.45-5.5-9.87-4.77s-8.82,1.7-13.27,2.14c-7.49.75-14.88.29-21.81-3.15-4.87-2.41-8.39-6.27-11.89-10.3-9.37-10.8-13.08-23.67-13.73-37.55-.42-9,2.83-17,7.43-24.57,4.76-7.83,10.84-14.61,16.75-21.54a16.17,16.17,0,0,0,2.78-4.11,10.85,10.85,0,0,0,.91-4.92,5.07,5.07,0,0,1,2-5c2.53-2,4.92-4.23,7.37-6.36Zm84.94,182c-1.65-3-3.36-5.88-4.92-8.89a171.63,171.63,0,0,0-16.16-25.75c-3.27-4.24-6.58-8.48-11.33-11.22a10.22,10.22,0,0,0-9.74-.5,61.45,61.45,0,0,0-19.22,14.05c-7.76,8.12-11,17.7-8.38,28.8a64.89,64.89,0,0,0,15.47,29c6.88,7.57,15.44,11.12,25.61,11a76.25,76.25,0,0,0,30.25-6.51c5.32-2.34,6.92-5.43,5.94-11.2-.07-.42-.14-.85-.24-1.27C1412.08,904.65,1409.26,899,1406.3,893.38Zm-110.82-87.21c.85,1.39,1.92,3.33,3.17,5.15,4.42,6.43,10.12,11.26,18,12.33a46.58,46.58,0,0,0,12.65-.18,57.63,57.63,0,0,0,20.14-6.33c3.73-2.07,6.21-5.05,6.17-9.56a54.82,54.82,0,0,0-.43-7.71c-1.29-8.44-4.13-16.4-7.32-24.3a297.53,297.53,0,0,0-14.73-31.82,34.06,34.06,0,0,0-4-5.7c-2.35-2.75-5.41-3.68-8.82-2.27a37.73,37.73,0,0,0-6.84,3.58,76.51,76.51,0,0,0-19.87,19.84c-3.7,5.33-6.35,11.26-6.21,17.84C1287.61,787.17,1290.65,796.64,1295.48,806.16Zm19.59-78.64a6.59,6.59,0,1,0,3.06-8.79A6.53,6.53,0,0,0,1315.07,727.52Zm107.66,206.1a6.57,6.57,0,1,0-8.82-2.94A6.62,6.62,0,0,0,1422.73,933.62Z"/><path class="cls-1" d="M1370.84,809.08c-.94-3.5-1.74-6.51-2.56-9.53-.42-1.54-.76-3.12-1.32-4.61a5,5,0,0,1,.55-4.55q4.46-8,8.76-16c1.32-2.48.51-5.7-2.1-8a25,25,0,0,0-12.28-5.59,11.54,11.54,0,0,1-7-3.64c-3.54-3.88-5.95-8.35-8.21-13-4.43-9.15-9.18-18.14-13.79-27.19-.22-.42-.42-.85-.78-1.57,13.4,8.93,26,18.35,36,30.65,3.49,4.27,6.49,8.94,9.72,13.42,1,1.34,1.93,2.7,2.93,4a12.47,12.47,0,0,1,2.19,11.37c-3.19,11.25-6.22,22.56-11.51,33.08C1371.41,808.13,1371.28,808.33,1370.84,809.08Z"/><path class="cls-1" d="M1435.19,928.2c-2.25-5.12-4.41-10.29-6.77-15.36-3.27-7-6.67-14-10-21-1-2-2-3.94-3-6a7.81,7.81,0,0,1,.17-6.78,31.29,31.29,0,0,0,3.14-12.45,16.82,16.82,0,0,0-.56-4.92c-1-3.38-3-5.8-6.72-6.61-5.29-1.15-10.54-2.46-15.77-3.86a6.19,6.19,0,0,1-3.07-2c-2.83-3.63-5.49-7.4-8.2-11.12a17.59,17.59,0,0,1-.89-1.55,9.05,9.05,0,0,1,6.28.56q12.76,5.79,25.45,11.74c5.39,2.54,8.59,6.76,10.07,12.65s3.72,11.71,5.51,17.58c3.13,10.26,4.22,20.82,4.44,31.5.12,5.84.14,11.67.21,17.51Z"/><path class="cls-2" d="M1229.52,513.08c-39.81-18.11,15.61-61.14,15.61-61.14S1273.13,516.28,1229.52,513.08Z"/><path class="cls-3" d="M1333.46,406.46,1323,393.84a3.8,3.8,0,0,0-5.36-.49l-64.33,53.51a3.8,3.8,0,0,0-.49,5.36l72.33,87a3.8,3.8,0,0,0,5.36.49l64.33-53.51a3.81,3.81,0,0,0,.49-5.36l-10.4-12.5a40.24,40.24,0,0,0-51.45-61.85Zm-27.3,12.21c-.67-.81.05-2.52,1.62-3.82s3.38-1.7,4.05-.89l57.07,68.61c.67.81-.05,2.52-1.62,3.82s-3.38,1.7-4,.9Zm-31.5,26.2c-.67-.81.05-2.52,1.62-3.82s3.38-1.7,4-.89l57.07,68.61c.67.81-.05,2.52-1.62,3.82s-3.38,1.7-4,.89Zm117.72,38.36-64.33,53.51-72.33-87,2.22-1.85,67.73,81.42,59.95-49.87-67.73-81.42,2.16-1.8Zm-50.45-66.59A26.93,26.93,0,0,1,1376.34,458Zm39.35,47.31-1.32-1.58a32.6,32.6,0,0,0-40.15-51.21l-1.22-1.47a34.58,34.58,0,0,1,42.69,54.26Z"/><path class="cls-2" d="M1295.62,390.33a15.1,15.1,0,0,0-4.37,6,21.33,21.33,0,0,0-31.91,26,15.17,15.17,0,0,0-12.53,19.15L1311.13,388A15.17,15.17,0,0,0,1295.62,390.33Z"/><polygon class="cls-4" points="471.19 555.87 471.19 471.05 490.07 471.05 471.19 555.87"/><polygon class="cls-4" points="471.19 386.23 471.19 471.05 452.3 471.05 471.19 386.23"/><polygon class="cls-4" points="386.86 471.05 471.19 471.05 471.19 490.05 386.86 471.05"/><polygon class="cls-4" points="555.52 471.05 471.19 471.05 471.19 452.06 555.52 471.05"/><polygon class="cls-2" points="490.07 471.05 471.19 386.23 471.19 452.06 490.07 471.05"/><polygon class="cls-2" points="471.19 452.06 386.86 471.05 452.3 471.05 471.19 452.06"/><polygon class="cls-2" points="452.3 471.05 471.19 555.87 471.19 490.05 452.3 471.05"/><polygon class="cls-2" points="471.19 490.05 555.52 471.05 490.07 471.05 471.19 490.05"/><polygon class="cls-4" points="503.9 503.94 471.19 471.05 478.52 463.69 503.9 503.94"/><polygon class="cls-4" points="438.48 438.15 471.19 471.05 463.86 478.42 438.48 438.15"/><polygon class="cls-4" points="438.48 503.94 471.19 471.05 478.52 478.41 438.48 503.94"/><polygon class="cls-4" points="503.9 438.15 471.19 471.05 463.86 463.69 503.9 438.15"/><polygon class="cls-2" points="478.52 463.69 438.48 438.15 463.86 463.69 478.52 463.69"/><polygon class="cls-2" points="463.86 463.69 438.48 503.94 463.86 478.42 463.86 463.69"/><polygon class="cls-2" points="463.86 478.42 503.9 503.94 478.52 478.41 463.86 478.42"/><polygon class="cls-2" points="478.52 478.41 503.9 438.15 478.52 463.69 478.52 478.41"/><text class="cls-5" transform="translate(387.54 426.17)">N</text><text class="cls-5" transform="translate(491.21 567.15)">W</text><path class="cls-2" d="M544.67,852.71a9.5,9.5,0,0,1,4.6,3.77L558,834.6h0l0-.09,28.73,6.58,0,.08,2.2.88-10.44,26.09a7.46,7.46,0,0,1,3.65.51c3.23,1.29,5,4.42,4,7s-4.48,3.6-7.71,2.3-5-4.42-4-7a4,4,0,0,1,.44-.8l10.66-26.64-25.91-5.93-9.7,24.25,0,.07c-1.35,3.37-5.89,4.73-10.15,3s-6.6-5.82-5.25-9.19S540.42,851,544.67,852.71Z"/><path class="cls-2" d="M1006.18,1140.11a9.51,9.51,0,0,1,4.6,3.77l8.75-21.87h0l0-.09,28.73,6.58,0,.08,2.2.88L1040,1155.55a7.46,7.46,0,0,1,3.65.51c3.23,1.29,5,4.42,4,7s-4.48,3.6-7.71,2.3-5-4.42-4-7a3.91,3.91,0,0,1,.44-.8l10.66-26.64-25.91-5.93-9.7,24.25,0,.07c-1.35,3.37-5.89,4.73-10.15,3s-6.6-5.82-5.25-9.19S1001.93,1138.41,1006.18,1140.11Z"/><path class="cls-2" d="M364.73,605.18a15.55,15.55,0,0,1,7,5.36l11.61-29h0l0-.12L426.17,592l0,.11,3.3,1.32L415.6,628.05a12.37,12.37,0,0,1,5.42.9c4.85,1.94,7.67,6.27,6.31,9.67s-6.39,4.59-11.24,2.65-7.67-6.27-6.31-9.67a4.62,4.62,0,0,1,.6-1.06l14.14-35.33-38.58-9.56-12.87,32.16,0,.09c-1.79,4.48-8.41,6-14.79,3.49s-10.09-8.25-8.3-12.73S358.36,602.63,364.73,605.18Z"/><path class="cls-2" d="M620,553.26a6.54,6.54,0,0,1,3.17,2.59l6-15h0v-.06L649,545.27v.06l1.51.61-7.18,17.94a5.13,5.13,0,0,1,2.51.35c2.22.89,3.45,3,2.75,4.81s-3.08,2.47-5.3,1.58-3.45-3-2.75-4.81a2.7,2.7,0,0,1,.3-.55l7.33-18.32-17.82-4.08-6.67,16.67,0,0c-.93,2.32-4.05,3.25-7,2.08s-4.54-4-3.61-6.32S617.12,552.09,620,553.26Z"/><path class="cls-2" d="M547.5,1149.64a6.54,6.54,0,0,1,3.17,2.59l6-15h0v-.06l19.76,4.53v.06l1.51.61-7.18,17.94a5.14,5.14,0,0,1,2.51.35c2.22.89,3.45,3,2.75,4.81s-3.08,2.47-5.3,1.58-3.45-3-2.75-4.81a2.71,2.71,0,0,1,.3-.55l7.33-18.32-17.82-4.08-6.67,16.67,0,0c-.93,2.32-4.05,3.25-7,2.08s-4.54-4-3.61-6.32S544.58,1148.47,547.5,1149.64Z"/><path class="cls-2" d="M541.23,383.64a9.49,9.49,0,0,1,2.4,5.44l17.71-15.53h0l.05-.07L584,392.37l-.05.06,1.56,1.78-21.13,18.53a7.47,7.47,0,0,1,3,2.11c2.3,2.62,2.47,6.22.4,8s-5.62,1.18-7.92-1.44-2.47-6.21-.39-8a3.83,3.83,0,0,1,.76-.52L581.84,394l-20.41-17L541.8,394.17l-.05,0c-2.73,2.4-7.4,1.55-10.42-1.89s-3.25-8.18-.52-10.57S538.21,380.2,541.23,383.64Z"/><path class="cls-2" d="M816.31,1334.24a9.49,9.49,0,0,1,5.94-.29l-8.15-22.1h0l0-.08,25.75-14.35,0,.07,2.23-.82,9.71,26.37a7.48,7.48,0,0,1,3.05-2.07c3.27-1.2,6.69-.08,7.65,2.52s-.92,5.67-4.19,6.88-6.69.08-7.64-2.52a3.85,3.85,0,0,1-.21-.89L840.52,1300,817.31,1313l9,24.5,0,.07c1.26,3.41-1.2,7.46-5.51,9s-8.8.1-10.06-3.31S812,1335.82,816.31,1334.24Z"/><path class="cls-2" d="M399,835.44a16.27,16.27,0,0,1,9.28-4.2l-26.91-30.09h0l-.12-.09,32-39.09.11.09,3-2.71,32.09,35.89A12.8,12.8,0,0,1,452,790c4.45-4,10.61-4.34,13.77-.81s2.11,9.61-2.34,13.59-10.61,4.34-13.77.81a6.68,6.68,0,0,1-.9-1.29L416,765.68l-28.83,35.25L417,834.28l.09.09c4.15,4.64,2.78,12.64-3.07,17.88s-14,5.71-18.11,1.07S393.13,840.67,399,835.44Z"/><path class="cls-2" d="M1295,1007.1c-22.48,15.55-27.79-28-27.79-28S1310.69,984.74,1295,1007.1Z"/><path class="cls-2" d="M944.06,448.41c-43.85-8.65,1.16-64.47,1.16-64.47S988.19,441.35,944.06,448.41Z"/><path class="cls-2" d="M1426.86,708.47c-23.17,6.6-15.26-31.24-15.26-31.24S1446.31,694.25,1426.86,708.47Z"/><path class="cls-2" d="M1180.5,457.81c-23.17,6.6-15.26-31.24-15.26-31.24S1199.95,443.6,1180.5,457.81Z"/><path class="cls-2" d="M683.67,462.41c-38.34-5.11-2.48-55.75-2.48-55.75S721.4,453.92,683.67,462.41Z"/><path class="cls-2" d="M1419,991.34c-19,14.87-25.93-23.15-25.93-23.15S1431.64,970.83,1419,991.34Z"/><path class="cls-2" d="M1296.67,628.46c-24,2.46-9.58-33.42-9.58-33.42S1318.3,617.85,1296.67,628.46Z"/><path class="cls-2" d="M1434.06,1132c-36,26.55-46.83-44.32-46.83-44.32S1458.59,1094.62,1434.06,1132Z"/><path class="cls-2" d="M1376.85,637.69c-41.33,17-34.64-54.38-34.64-54.38S1409.74,607.43,1376.85,637.69Z"/><path class="cls-2" d="M1131.22,1134.85c-30.66,9.73-21.6-41.08-21.6-41.08S1156.62,1115.11,1131.22,1134.85Z"/><path class="cls-2" d="M1120.2,1276.23c-42,10.88-26.12-56.94-26.12-56.94S1155.87,1251.47,1120.2,1276.23Z"/><path class="cls-2" d="M1107.8,464.42c-59.51-11.92,1.82-87.54,1.82-87.54S1167.75,455,1107.8,464.42Z"/><path class="cls-2" d="M786.5,419.15c-31.11-6.23,1-45.76,1-45.76S817.84,414.23,786.5,419.15Z"/><path class="cls-2" d="M1009.08,1294.39c-77.27-6.17-10.85-111.31-10.85-111.31S1083.7,1273.42,1009.08,1294.39Z"/><path class="cls-2" d="M758.53,1279.2c-28.45-12.94,11.16-43.7,11.16-43.7S789.71,1281.49,758.53,1279.2Z"/><path class="cls-2" d="M1027.36,489c-30.45-7,2.28-45,2.28-45S1058.37,485.1,1027.36,489Z"/><path class="cls-2" d="M449.57,902.1c-26.9-38.69,48.12-48,48.12-48S488.2,929.08,449.57,902.1Z"/><path class="cls-2" d="M394.23,1334.31c-33-35.84,42.54-55.91,42.54-55.91S437.56,1356.52,394.23,1334.31Z"/><path class="cls-2" d="M676.18,1209.88c-24.88-27.06,32.11-42.2,32.11-42.2S708.89,1226.65,676.18,1209.88Z"/><path class="cls-2" d="M403.61,1136c-11.87-23.08,29.77-22.72,29.77-22.72S422.74,1153.54,403.61,1136Z"/><path class="cls-2" d="M460.78,690.15c-11.87-23.08,29.77-22.72,29.77-22.72S479.9,707.69,460.78,690.15Z"/><path class="cls-2" d="M384.45,1004.92c-17.31-28.05,35.45-31.71,35.45-31.71S410.41,1025.24,384.45,1004.92Z"/><path class="cls-2" d="M501.18,1013c-19.64-31.63,39.95-35.92,39.95-35.92S530.55,1035.85,501.18,1013Z"/><path class="cls-2" d="M903,1429.77c-67.09-22.34,14.71-101,14.71-101S973.64,1427.5,903,1429.77Z"/><path class="cls-2" d="M843.17,1212.21c-50.73-23.07,19.9-77.91,19.9-77.91S898.75,1216.29,843.17,1212.21Z"/></svg>