<svg id="sun_clouds" data-name="sun clouds" xmlns="http://www.w3.org/2000/svg" viewBox="0 0 1872 1872"><defs><style>.cls-1{fill:#f7e943;}.cls-2{fill:#fff;}</style></defs><title>layer1</title><circle class="cls-1" cx="1263.79" cy="172.82" r="158.72"/><path class="cls-2" d="M659,321.76c3.76,0,7.42.16,10.95.45,2-16.88,25.47-30.2,54.14-30.2a89.2,89.2,0,0,1,13.4,1c7.49-26.3,47.75-46.4,96.31-46.4,5.18,0,10.27.23,15.23.67,27.2-24.83,83.28-41.87,148-41.87,60.78,0,113.89,15,142.69,37.37,55,3.2,98,30,98,62.54,0,.75,0,1.5-.08,2.25,19,3.91,34.15,12.6,41,23.56H615.23C624.1,325.53,640.39,321.76,659,321.76Z"/><path class="cls-2" d="M1250.34,344.77c1.2,0,2.37.06,3.49.17.64-6.27,8.12-11.21,17.27-11.21a24.55,24.55,0,0,1,4.27.37c2.39-9.77,15.23-17.23,30.72-17.23a47.21,47.21,0,0,1,4.86.25c8.68-9.22,26.56-15.55,47.22-15.55,19.38,0,36.33,5.57,45.51,13.87,17.55,1.19,31.25,11.13,31.25,23.22,0,.28,0,.56,0,.84,6.08,1.45,10.89,4.68,13.07,8.75H1236.37C1239.2,346.17,1244.4,344.77,1250.34,344.77Z"/><path class="cls-2" d="M1347.36,264.8c1.2,0,2.37.06,3.49.17.64-6.27,8.12-11.21,17.27-11.21a24.55,24.55,0,0,1,4.27.37c2.39-9.77,15.23-17.23,30.72-17.23a47.21,47.21,0,0,1,4.86.25c8.68-9.22,26.56-15.55,47.22-15.55,19.38,0,36.33,5.57,45.51,13.87,17.55,1.19,31.25,11.13,31.25,23.22,0,.28,0,.56,0,.84,6.08,1.45,10.89,4.68,13.07,8.75H1333.38C1336.21,266.19,1341.41,264.8,1347.36,264.8Z"/><path class="cls-2" d="M409.45,298.21c1.2,0,2.37.06,3.49.17.64-6.27,8.12-11.21,17.27-11.21a24.55,24.55,0,0,1,4.27.37c2.39-9.77,15.23-17.23,30.72-17.23a47.21,47.21,0,0,1,4.86.25c8.68-9.22,26.56-15.55,47.22-15.55,19.38,0,36.33,5.57,45.51,13.87,17.55,1.19,31.25,11.13,31.25,23.22,0,.28,0,.56,0,.84,6.08,1.45,10.89,4.68,13.07,8.75H395.48C398.31,299.61,403.51,298.21,409.45,298.21Z"/></svg>